<svg width="2205" height="1969" viewBox="0 0 2205 1969" fill="none" xmlns="http://www.w3.org/2000/svg">
<g style="mix-blend-mode:screen" filter="url(#filter0_ddf_110_42)">
<rect x="577.474" y="648.913" width="1189.46" height="625.092" rx="75.0986" fill="white" shape-rendering="crispEdges"/>
<rect x="577.474" y="648.913" width="1189.46" height="625.092" rx="75.0986" stroke="url(#paint0_radial_110_42)" stroke-width="1.21127" shape-rendering="crispEdges"/>
</g>
<g filter="url(#filter1_f_110_42)">
<ellipse cx="645.828" cy="462.845" rx="645.828" ry="462.845" transform="matrix(0.889518 0.456899 -0.490195 0.871613 754.769 286)" fill="#4034EB"/>
</g>
<g clip-path="url(#clip0_110_42)">
<rect x="572.63" y="653.543" width="1194.31" height="720.013" rx="29.0704" fill="#080809"/>
<g opacity="0.3" filter="url(#filter2_f_110_42)">
<ellipse cx="746.39" cy="738.953" rx="878" ry="472" fill="url(#paint1_radial_110_42)"/>
</g>
<g filter="url(#filter3_f_110_42)">
<ellipse cx="869.433" cy="621.984" rx="757.042" ry="207.127" fill="url(#paint2_radial_110_42)"/>
</g>
<g filter="url(#filter4_f_110_42)">
<ellipse cx="526.39" cy="566.953" rx="736" ry="186" transform="rotate(90 526.39 566.953)" fill="url(#paint3_radial_110_42)"/>
</g>
<g filter="url(#filter5_f_110_42)">
<ellipse cx="675.891" cy="645.857" rx="729.5" ry="45" fill="url(#paint4_radial_110_42)"/>
</g>
<g filter="url(#filter6_f_110_42)">
<ellipse cx="560.828" cy="777.548" rx="525.69" ry="44.8169" transform="rotate(90 560.828 777.548)" fill="url(#paint5_radial_110_42)"/>
</g>
<mask id="mask0_110_42" style="mask-type:alpha" maskUnits="userSpaceOnUse" x="500" y="621" width="1292" height="553">
<rect x="609.029" y="693.335" width="46.4871" height="44.6912" rx="22.3456" stroke="white" stroke-width="1.24142"/>
<rect x="1569.88" y="693.335" width="155.76" height="44.6912" rx="22.3456" stroke="white" stroke-width="1.24142"/>
<rect x="609.029" y="806.304" width="483.58" height="83.1754" rx="41.5877" fill="url(#paint6_linear_110_42)" fill-opacity="0.1" stroke="white" stroke-width="1.24142"/>
<rect x="609.029" y="913.067" width="305.39" height="83.1754" rx="41.5877" fill="url(#paint7_linear_110_42)" fill-opacity="0.1" stroke="white" stroke-width="1.24142"/>
<rect x="609.029" y="1059.55" width="136.557" height="37.2427" rx="18.6213" stroke="white" stroke-width="1.24142"/>
<rect x="501.011" y="622.574" width="1289.94" height="139.039" stroke="white" stroke-width="1.24142"/>
<path d="M1605.31 1070.61L1605.3 1070.61C1604.75 1071.07 1604.05 1071.32 1603.32 1071.32H1297.84C1296.17 1071.32 1294.81 1069.97 1294.81 1068.34C1294.81 1067.64 1295.07 1066.97 1295.54 1066.39C1295.54 1066.39 1295.54 1066.38 1295.54 1066.38L1373.24 975.295L1373.24 975.29C1374.29 974.035 1376.21 973.867 1377.51 974.907C1377.56 974.955 1377.62 975.009 1377.67 975.052C1377.69 975.074 1377.71 975.093 1377.73 975.107C1377.8 975.171 1377.85 975.221 1377.88 975.268L1377.89 975.282L1377.9 975.295L1423.26 1028.51L1423.73 1029.07L1424.21 1028.51L1496.34 943.952L1496.35 943.946C1497.39 942.691 1499.32 942.524 1500.62 943.563C1500.69 943.635 1500.79 943.72 1500.84 943.763C1500.91 943.828 1500.95 943.878 1500.99 943.925L1501 943.939L1501.01 943.952L1605.76 1066.42C1605.76 1066.43 1605.77 1066.43 1605.77 1066.43C1606.74 1067.66 1606.58 1069.57 1605.31 1070.61ZM1371.21 874.582C1386.99 874.582 1399.8 887.255 1399.8 902.825C1399.8 918.395 1386.99 931.067 1371.21 931.067C1355.44 931.067 1342.63 918.395 1342.63 902.825C1342.63 887.255 1355.44 874.582 1371.21 874.582Z" fill="url(#paint8_radial_110_42)" stroke="white" stroke-width="1.24142"/>
<rect x="1221.96" y="806.304" width="457.204" height="366.22" rx="34.1391" stroke="white" stroke-width="1.24142"/>
</mask>
<g mask="url(#mask0_110_42)">
<rect opacity="0.6" x="500.39" y="621.953" width="1291.18" height="475.465" fill="url(#paint9_radial_110_42)"/>
</g>
</g>
<rect x="572.63" y="653.543" width="1194.31" height="720.013" rx="29.0704" stroke="url(#paint10_radial_110_42)" stroke-width="1.21127"/>
<defs>
<filter id="filter0_ddf_110_42" x="472.215" y="543.654" width="1399.98" height="835.611" filterUnits="userSpaceOnUse" color-interpolation-filters="sRGB">
<feFlood flood-opacity="0" result="BackgroundImageFix"/>
<feColorMatrix in="SourceAlpha" type="matrix" values="0 0 0 0 0 0 0 0 0 0 0 0 0 0 0 0 0 0 127 0" result="hardAlpha"/>
<feOffset/>
<feGaussianBlur stdDeviation="52.3268"/>
<feComposite in2="hardAlpha" operator="out"/>
<feColorMatrix type="matrix" values="0 0 0 0 0.25098 0 0 0 0 0.203922 0 0 0 0 0.921569 0 0 0 1 0"/>
<feBlend mode="normal" in2="BackgroundImageFix" result="effect1_dropShadow_110_42"/>
<feColorMatrix in="SourceAlpha" type="matrix" values="0 0 0 0 0 0 0 0 0 0 0 0 0 0 0 0 0 0 127 0" result="hardAlpha"/>
<feOffset/>
<feGaussianBlur stdDeviation="11.507"/>
<feComposite in2="hardAlpha" operator="out"/>
<feColorMatrix type="matrix" values="0 0 0 0 0.219608 0 0 0 0 0.647059 0 0 0 0 1 0 0 0 1 0"/>
<feBlend mode="normal" in2="effect1_dropShadow_110_42" result="effect2_dropShadow_110_42"/>
<feBlend mode="normal" in="SourceGraphic" in2="effect2_dropShadow_110_42" result="shape"/>
<feGaussianBlur stdDeviation="33.5521" result="effect3_foregroundBlur_110_42"/>
</filter>
<filter id="filter1_f_110_42" x="0.0320129" y="0.138458" width="2204.66" height="1968.72" filterUnits="userSpaceOnUse" color-interpolation-filters="sRGB">
<feFlood flood-opacity="0" result="BackgroundImageFix"/>
<feBlend mode="normal" in="SourceGraphic" in2="BackgroundImageFix" result="shape"/>
<feGaussianBlur stdDeviation="242.254" result="effect1_foregroundBlur_110_42"/>
</filter>
<filter id="filter2_f_110_42" x="-252.737" y="145.826" width="1998.25" height="1186.25" filterUnits="userSpaceOnUse" color-interpolation-filters="sRGB">
<feFlood flood-opacity="0" result="BackgroundImageFix"/>
<feBlend mode="normal" in="SourceGraphic" in2="BackgroundImageFix" result="shape"/>
<feGaussianBlur stdDeviation="60.5634" result="effect1_foregroundBlur_110_42"/>
</filter>
<filter id="filter3_f_110_42" x="-8.73589" y="293.73" width="1756.34" height="656.507" filterUnits="userSpaceOnUse" color-interpolation-filters="sRGB">
<feFlood flood-opacity="0" result="BackgroundImageFix"/>
<feBlend mode="normal" in="SourceGraphic" in2="BackgroundImageFix" result="shape"/>
<feGaussianBlur stdDeviation="60.5634" result="effect1_foregroundBlur_110_42"/>
</filter>
<filter id="filter4_f_110_42" x="219.263" y="-290.174" width="614.254" height="1714.25" filterUnits="userSpaceOnUse" color-interpolation-filters="sRGB">
<feFlood flood-opacity="0" result="BackgroundImageFix"/>
<feBlend mode="normal" in="SourceGraphic" in2="BackgroundImageFix" result="shape"/>
<feGaussianBlur stdDeviation="60.5634" result="effect1_foregroundBlur_110_42"/>
</filter>
<filter id="filter5_f_110_42" x="-96.0035" y="558.463" width="1543.79" height="174.789" filterUnits="userSpaceOnUse" color-interpolation-filters="sRGB">
<feFlood flood-opacity="0" result="BackgroundImageFix"/>
<feBlend mode="normal" in="SourceGraphic" in2="BackgroundImageFix" result="shape"/>
<feGaussianBlur stdDeviation="21.1972" result="effect1_foregroundBlur_110_42"/>
</filter>
<filter id="filter6_f_110_42" x="473.616" y="209.463" width="174.423" height="1136.17" filterUnits="userSpaceOnUse" color-interpolation-filters="sRGB">
<feFlood flood-opacity="0" result="BackgroundImageFix"/>
<feBlend mode="normal" in="SourceGraphic" in2="BackgroundImageFix" result="shape"/>
<feGaussianBlur stdDeviation="21.1972" result="effect1_foregroundBlur_110_42"/>
</filter>
<radialGradient id="paint0_radial_110_42" cx="0" cy="0" r="1" gradientUnits="userSpaceOnUse" gradientTransform="translate(1153.51 648.913) rotate(90) scale(409.526 779.272)">
<stop stop-color="white"/>
<stop offset="1" stop-color="white" stop-opacity="0"/>
</radialGradient>
<radialGradient id="paint1_radial_110_42" cx="0" cy="0" r="1" gradientUnits="userSpaceOnUse" gradientTransform="translate(746.39 738.953) scale(878 472)">
<stop stop-color="#4034EB"/>
<stop offset="1" stop-color="#4034EB" stop-opacity="0"/>
</radialGradient>
<radialGradient id="paint2_radial_110_42" cx="0" cy="0" r="1" gradientUnits="userSpaceOnUse" gradientTransform="translate(869.433 621.984) scale(757.042 207.127)">
<stop stop-color="#4034EB"/>
<stop offset="1" stop-color="#4034EB" stop-opacity="0"/>
</radialGradient>
<radialGradient id="paint3_radial_110_42" cx="0" cy="0" r="1" gradientUnits="userSpaceOnUse" gradientTransform="translate(526.39 566.953) scale(736 186)">
<stop stop-color="#4034EB"/>
<stop offset="1" stop-color="#4034EB" stop-opacity="0"/>
</radialGradient>
<radialGradient id="paint4_radial_110_42" cx="0" cy="0" r="1" gradientUnits="userSpaceOnUse" gradientTransform="translate(675.891 645.857) scale(729.5 45)">
<stop stop-color="white"/>
<stop offset="1" stop-color="white" stop-opacity="0"/>
</radialGradient>
<radialGradient id="paint5_radial_110_42" cx="0" cy="0" r="1" gradientUnits="userSpaceOnUse" gradientTransform="translate(560.828 777.548) scale(525.69 44.8169)">
<stop stop-color="white"/>
<stop offset="1" stop-color="white" stop-opacity="0"/>
</radialGradient>
<linearGradient id="paint6_linear_110_42" x1="850.819" y1="805.684" x2="850.819" y2="890.1" gradientUnits="userSpaceOnUse">
<stop stop-color="white"/>
<stop offset="1" stop-color="white" stop-opacity="0"/>
</linearGradient>
<linearGradient id="paint7_linear_110_42" x1="761.724" y1="912.446" x2="761.724" y2="996.863" gradientUnits="userSpaceOnUse">
<stop stop-color="white"/>
<stop offset="1" stop-color="white" stop-opacity="0"/>
</linearGradient>
<radialGradient id="paint8_radial_110_42" cx="0" cy="0" r="1" gradientUnits="userSpaceOnUse" gradientTransform="translate(1450.6 914.282) rotate(90) scale(157.663 170.565)">
<stop stop-color="white"/>
<stop offset="1" stop-color="white" stop-opacity="0"/>
</radialGradient>
<radialGradient id="paint9_radial_110_42" cx="0" cy="0" r="1" gradientUnits="userSpaceOnUse" gradientTransform="translate(524.758 645.525) rotate(16.3754) scale(1087.24 361.089)">
<stop stop-color="white"/>
<stop offset="1" stop-color="white" stop-opacity="0"/>
</radialGradient>
<radialGradient id="paint10_radial_110_42" cx="0" cy="0" r="1" gradientUnits="userSpaceOnUse" gradientTransform="translate(632.39 677.349) rotate(28.2377) scale(581.73 900.013)">
<stop stop-color="white"/>
<stop offset="1" stop-color="white" stop-opacity="0"/>
</radialGradient>
<clipPath id="clip0_110_42">
<rect x="572.63" y="653.543" width="1194.31" height="720.013" rx="29.0704" fill="white"/>
</clipPath>
</defs>
</svg>
